<svg width="24" height="24" viewBox="0 0 24 24" fill="none" xmlns="http://www.w3.org/2000/svg">
<path d="M16.0003 2L13.7003 4.3C13.1507 4.86079 12.8428 5.61474 12.8428 6.4C12.8428 7.18526 13.1507 7.93921 13.7003 8.5L15.5003 10.3C16.0611 10.8497 16.8151 11.1576 17.6003 11.1576C18.3856 11.1576 19.1396 10.8497 19.7003 10.3L22.0003 8" stroke="#37FF00" stroke-width="2" stroke-linecap="round" stroke-linejoin="round"/>
<path d="M14.9997 15L3.29967 3.30005C2.90056 3.6911 2.58348 4.15787 2.36702 4.673C2.15056 5.18813 2.03906 5.74128 2.03906 6.30005C2.03906 6.85881 2.15056 7.41196 2.36702 7.9271C2.58348 8.44223 2.90056 8.90899 3.29967 9.30005L10.5997 16.6C11.2997 17.3 12.5997 17.3 13.3997 16.6L14.9997 15ZM14.9997 15L21.9997 22" stroke="#37FF00" stroke-width="2" stroke-linecap="round" stroke-linejoin="round"/>
<path d="M2.09961 21.8L8.49961 15.5" stroke="#37FF00" stroke-width="2" stroke-linecap="round" stroke-linejoin="round"/>
<path d="M19 5L12 12" stroke="#37FF00" stroke-width="2" stroke-linecap="round" stroke-linejoin="round"/>
</svg>
